<svg xmlns="http://www.w3.org/2000/svg" width="254" height="188" viewBox="0 0 254 188" fill="none">
  <path d="M205.441 83.3532C231.136 81.5373 253.184 85.4617 253.184 85.4617C253.184 85.4617 242.888 113.896 223.591 138.169" stroke="#F7F7F7" stroke-width="1.01562" stroke-miterlimit="10" stroke-linecap="round" stroke-linejoin="round" style="mix-blend-mode:soft-light"/>
  <path d="M155.857 50.6101C179.475 33.8975 203.944 25.0387 203.944 25.0387C203.944 25.0387 215.116 87.7595 192.289 127.3C191.741 128.249 191.17 129.185 190.575 130.105" stroke="#F7F7F7" stroke-width="1.01562" stroke-miterlimit="10" stroke-linecap="round" stroke-linejoin="round" style="mix-blend-mode:soft-light"/>
  <path d="M30.4037 138.169C11.1059 113.896 0.810547 85.4617 0.810547 85.4617C0.810547 85.4617 22.8582 81.5373 48.5529 83.3532" stroke="#F7F7F7" stroke-width="1.01562" stroke-miterlimit="10" stroke-linecap="round" stroke-linejoin="round" style="mix-blend-mode:soft-light"/>
  <path d="M50.5321 96.0571C43.5954 61.2974 50.0548 25.0397 50.0548 25.0397C50.0548 25.0397 74.5211 33.896 98.1394 50.608" stroke="#F7F7F7" stroke-width="1.01562" stroke-miterlimit="10" stroke-linecap="round" stroke-linejoin="round" style="mix-blend-mode:soft-light"/>
  <path d="M55.2246 113.176C56.9969 118.096 59.1348 122.844 61.7094 127.298C62.2629 128.263 62.8367 129.197 63.4207 130.106" stroke="#F7F7F7" stroke-width="1.01562" stroke-miterlimit="10" stroke-linecap="round" stroke-linejoin="round" style="mix-blend-mode:soft-light"/>
  <path d="M146.691 33.0682C157.218 51.1158 168.035 75.3688 168.035 98.8094C168.035 117.543 160.28 131.233 151.511 140.729" stroke="#F7F7F7" stroke-width="1.01562" stroke-miterlimit="10" stroke-linecap="round" stroke-linejoin="round" style="mix-blend-mode:soft-light"/>
  <path d="M102.485 140.729C93.7152 131.233 85.9609 117.543 85.9609 98.8094C85.9609 53.1521 126.997 4.42255 126.997 4.42255C126.997 4.42255 131.324 9.5616 137.169 18.0624" stroke="#F7F7F7" stroke-width="1.01562" stroke-miterlimit="10" stroke-linecap="round" stroke-linejoin="round" style="mix-blend-mode:soft-light"/>
  <path d="M198.95 185.935C229.601 181.872 253.189 158.315 253.189 158.315C253.189 158.315 224.94 130.101 190.094 130.101C155.248 130.101 126.998 158.315 126.998 158.315C126.998 158.315 150.586 181.872 181.237 185.935" stroke="#F7F7F7" stroke-width="1.01562" stroke-miterlimit="10" stroke-linecap="round" stroke-linejoin="round" style="mix-blend-mode:soft-light"/>
  <path d="M0.806641 158.314C0.806641 158.314 29.0552 186.527 63.9022 186.527C98.7492 186.527 126.998 158.314 126.998 158.314C126.998 158.314 98.7492 130.1 63.9022 130.1C29.0552 130.1 0.806641 158.314 0.806641 158.314Z" stroke="#F7F7F7" stroke-width="1.01562" stroke-miterlimit="10" stroke-linecap="round" stroke-linejoin="round" style="mix-blend-mode:soft-light"/>
  <path d="M94.9637 7.55886C96.1372 11.9377 93.5388 16.4379 89.1599 17.611C84.7816 18.784 80.2808 16.1861 79.1078 11.8077C77.9348 7.42886 80.5332 2.92864 84.9116 1.75508C89.2899 0.582041 93.7906 3.18051 94.9637 7.55886Z" stroke="#F7F7F7" stroke-width="1.01562" stroke-miterlimit="10" stroke-linecap="round" stroke-linejoin="round" style="mix-blend-mode:soft-light"/>
  <path d="M23.6204 43.8426C26.8257 47.0479 26.8257 52.2448 23.6204 55.4496C20.4151 58.6549 15.2181 58.6549 12.0134 55.4496C8.80805 52.2448 8.80805 47.0479 12.0134 43.8426C15.2181 40.6373 20.4151 40.6373 23.6204 43.8426Z" stroke="#F7F7F7" stroke-width="1.01562" stroke-miterlimit="10" stroke-linecap="round" stroke-linejoin="round" style="mix-blend-mode:soft-light"/>
  <path d="M159.032 7.55886C157.858 11.9377 160.457 16.4379 164.836 17.611C169.214 18.784 173.715 16.1861 174.888 11.8077C176.061 7.42886 173.462 2.92864 169.084 1.75508C164.706 0.582041 160.205 3.18051 159.032 7.55886Z" stroke="#F7F7F7" stroke-width="1.01562" stroke-miterlimit="10" stroke-linecap="round" stroke-linejoin="round" style="mix-blend-mode:soft-light"/>
  <path d="M230.375 43.8426C227.169 47.0479 227.169 52.2448 230.375 55.4496C233.58 58.6549 238.777 58.6549 241.982 55.4496C245.187 52.2448 245.187 47.0479 241.982 43.8426C238.777 40.6373 233.58 40.6373 230.375 43.8426Z" stroke="#F7F7F7" stroke-width="1.01562" stroke-miterlimit="10" stroke-linecap="round" stroke-linejoin="round" style="mix-blend-mode:soft-light"/>
  <path d="M126.998 158.314C126.998 158.314 139.52 145.997 144.439 127.535" stroke="#F7F7F7" stroke-width="1.01562" stroke-miterlimit="10" stroke-linecap="round" stroke-linejoin="round" style="mix-blend-mode:soft-light"/>
  <path d="M109.557 127.535C114.476 145.997 126.998 158.314 126.998 158.314" stroke="#F7F7F7" stroke-width="1.01562" stroke-miterlimit="10" stroke-linecap="round" stroke-linejoin="round" style="mix-blend-mode:soft-light"/>
  <path d="M126.998 158.314V117.276" stroke="#F7F7F7" stroke-width="1.01562" stroke-miterlimit="10" stroke-linecap="round" stroke-linejoin="round" style="mix-blend-mode:soft-light"/>
</svg>