<svg xmlns="http://www.w3.org/2000/svg" width="68" height="68" viewBox="0 0 68 68" fill="none">
  <rect width="68" height="68" rx="34" fill="#F7F7F7" style="mix-blend-mode:soft-light"/>
  <path d="M33.9993 17.9714C30.8292 17.9714 27.7302 18.9115 25.0943 20.6727C22.4584 22.434 20.404 24.9373 19.1908 27.8662C17.9776 30.795 17.6602 34.0179 18.2787 37.1271C18.8972 40.2364 20.4237 43.0924 22.6654 45.334C24.907 47.5757 27.7631 49.1023 30.8723 49.7207C33.9816 50.3392 37.2044 50.0218 40.1332 48.8086C43.0621 47.5955 45.5654 45.541 47.3267 42.9051C49.0879 40.2692 50.028 37.1702 50.028 34.0001" stroke="#231A37" stroke-width="3.20573"/>
  <path d="M45.8596 24.4629L32.4156 37.927L26.3047 31.8069" stroke="#604899" stroke-width="3.20573" stroke-linecap="round" stroke-linejoin="round"/>
</svg>