<svg xmlns="http://www.w3.org/2000/svg" width="72" height="72" viewBox="0 0 72 72" fill="none">
  <path d="M28.5 45V27M43.5 45V27M23.4 63H48.6C53.6405 63 56.1607 63 58.0859 62.0191C59.7794 61.1562 61.1562 59.7794 62.0191 58.0859C63 56.1607 63 53.6405 63 48.6V23.4C63 18.3595 63 15.8393 62.0191 13.9141C61.1562 12.2206 59.7794 10.8438 58.0859 9.98094C56.1607 9 53.6405 9 48.6 9H23.4C18.3595 9 15.8393 9 13.9141 9.98094C12.2206 10.8438 10.8438 12.2206 9.98094 13.9141C9 15.8393 9 18.3595 9 23.4V48.6C9 53.6405 9 56.1607 9.98094 58.0859C10.8438 59.7794 12.2206 61.1562 13.9141 62.0191C15.8393 63 18.3595 63 23.4 63Z" stroke="#F7F7F7" stroke-width="2" stroke-linecap="round" stroke-linejoin="round" style="mix-blend-mode:soft-light"/>
</svg>