<svg xmlns="http://www.w3.org/2000/svg" width="73" height="72" viewBox="0 0 73 72" fill="none">
  <path d="M29 26.896C29 25.4641 29 24.7482 29.2992 24.3485C29.56 24.0002 29.9591 23.7823 30.3931 23.7513C30.8912 23.7157 31.4934 24.1029 32.6978 24.8772L46.8596 33.9812C47.9048 34.6531 48.4273 34.989 48.6078 35.4162C48.7655 35.7894 48.7655 36.2106 48.6078 36.5838C48.4273 37.011 47.9048 37.3469 46.8596 38.0188L32.6978 47.1228C31.4934 47.8971 30.8912 48.2843 30.3931 48.2487C29.9591 48.2177 29.56 47.9998 29.2992 47.6515C29 47.2518 29 46.5359 29 45.104V26.896Z" stroke="#F7F7F7" stroke-width="2" stroke-linecap="round" stroke-linejoin="round" style="mix-blend-mode:soft-light"/>
  <path d="M9.5 23.4C9.5 18.3595 9.5 15.8393 10.4809 13.9141C11.3438 12.2206 12.7206 10.8438 14.4141 9.98094C16.3393 9 18.8595 9 23.9 9H49.1C54.1405 9 56.6607 9 58.5859 9.98094C60.2794 10.8438 61.6562 12.2206 62.5191 13.9141C63.5 15.8393 63.5 18.3595 63.5 23.4V48.6C63.5 53.6405 63.5 56.1607 62.5191 58.0859C61.6562 59.7794 60.2794 61.1562 58.5859 62.0191C56.6607 63 54.1405 63 49.1 63H23.9C18.8595 63 16.3393 63 14.4141 62.0191C12.7206 61.1562 11.3438 59.7794 10.4809 58.0859C9.5 56.1607 9.5 53.6405 9.5 48.6V23.4Z" stroke="#F7F7F7" stroke-width="2" stroke-linecap="round" stroke-linejoin="round" style="mix-blend-mode:soft-light"/>
</svg>