<svg xmlns="http://www.w3.org/2000/svg" width="73" height="72" viewBox="0 0 73 72" fill="none">
  <path d="M49.1 9H23.9C18.8595 9 16.3393 9 14.4141 9.98094C12.7206 10.8438 11.3438 12.2206 10.4809 13.9141C9.5 15.8393 9.5 18.3595 9.5 23.4V48.6C9.5 53.6405 9.5 56.1607 10.4809 58.0859C11.3438 59.7794 12.7206 61.1562 14.4141 62.0191C16.3393 63 18.8595 63 23.9 63H49.1C54.1405 63 56.6607 63 58.5859 62.0191C60.2794 61.1562 61.6562 59.7794 62.5191 58.0859C63.5 56.1607 63.5 53.6405 63.5 48.6V23.4C63.5 18.3595 63.5 15.8393 62.5191 13.9141C61.6562 12.2206 60.2794 10.8438 58.5859 9.98094C56.6607 9 54.1405 9 49.1 9Z" stroke="#F7F7F7" stroke-width="2" stroke-linecap="round" stroke-linejoin="round" style="mix-blend-mode:soft-light"/>
  <path d="M24.5 33.3333C24.5 33.3333 27.1381 29.691 29.2814 27.5177C31.4246 25.3444 34.3863 24 37.6579 24C44.1981 24 49.5 29.3726 49.5 36C49.5 42.6274 44.1981 48 37.6579 48C32.2591 48 27.7041 44.339 26.2786 39.3333M24.5 33.3333V25.3333M24.5 33.3333H32.3947" stroke="#F7F7F7" stroke-width="2" stroke-linecap="round" stroke-linejoin="round" style="mix-blend-mode:soft-light"/>
</svg>